<svg xmlns="http://www.w3.org/2000/svg" viewBox="0 0 1358.45 1000.84"><defs><style>.cls-1{fill:#f2e50a;}.cls-2{fill:#f28e1c;}.cls-3{fill:#fdc60a;}.cls-4{fill:#0a96bb;}.cls-5{fill:#2972b0;}.cls-6{fill:#444e9a;}.cls-7{fill:#c4097d;}.cls-8{fill:#e32522;}.cls-9{fill:#e96321;}.cls-10{fill:#8dbc26;}.cls-11{fill:#008f5a;}.cls-12{fill:#6d398c;}.cls-13{fill:#f28d1f;}.cls-14{fill:#e32423;}</style></defs><title>ontwerp</title><g id="Laag_2" data-name="Laag 2"><rect class="cls-1" x="356.64" width="356.64" height="356.64"/></g><g id="Laag_4" data-name="Laag 4"><rect class="cls-2" x="733.1" y="701.58" width="259.34" height="259.34"/><rect class="cls-3" x="782.62" y="751.11" width="160.28" height="160.28"/><rect class="cls-1" x="813.23" y="781.72" width="99.06" height="99.06"/></g><g id="Laag_5" data-name="Laag 5"><rect class="cls-4" x="713.28" y="118" width="238.64" height="238.64"/><rect class="cls-5" x="804.43" y="118" width="147.49" height="147.49"/><rect class="cls-6" x="860.76" y="118" width="91.15" height="91.15"/></g><g id="Laag_22" data-name="Laag 22"><rect class="cls-5" x="595.36" y="529.1" width="356.56" height="86.24"/><path class="cls-2" d="M325,497.34H238.72V411.1A86.23,86.23,0,0,1,325,497.34Z" transform="translate(356.64 118)"/><path class="cls-2" d="M238.72,411.1v86.23H152.48A86.23,86.23,0,0,1,238.72,411.1Z" transform="translate(356.64 118)"/></g><g id="Laag_3" data-name="Laag 3"><rect class="cls-7" x="402.47" y="356.64" width="192.89" height="192.89"/><rect class="cls-8" x="439.31" y="393.48" width="119.22" height="119.22"/><rect class="cls-9" x="462.08" y="416.25" width="73.68" height="73.68"/></g><g id="Laag_6" data-name="Laag 6"><rect class="cls-10" x="402.47" y="549.53" width="192.89" height="69.21"/></g><g id="Laag_7" data-name="Laag 7"><rect class="cls-6" x="402.47" y="618.74" width="192.89" height="82.84"/></g><g id="Laag_8" data-name="Laag 8"><rect class="cls-11" x="402.47" y="862.54" width="330.62" height="98.38"/></g><g id="Laag_19" data-name="Laag 19"><rect class="cls-9" x="595.36" y="615.34" width="356.55" height="86.24"/></g><g id="Laag_20" data-name="Laag 20"><rect class="cls-4" x="308.79" y="265.49" width="47.85" height="584.21"/><rect class="cls-8" x="992.43" y="118" width="366.01" height="72.93"/><rect class="cls-12" y="849.71" width="356.64" height="72.93"/><rect class="cls-7" x="213.98" y="960.92" width="519.12" height="39.92"/><rect class="cls-10" x="951.92" y="118" width="40.52" height="583.57"/><rect class="cls-3" x="713.28" y="45.07" width="577.05" height="72.93"/><rect class="cls-13" x="356.64" y="356.64" width="45.83" height="604.28"/></g><g id="Laag_21" data-name="Laag 21"><polygon class="cls-14" points="951.92 356.64 951.92 442.88 595.36 442.88 595.36 442.87 951.92 356.64"/><polygon class="cls-11" points="951.92 356.64 595.36 442.87 595.36 356.64 951.92 356.64"/></g><g id="Laag_23" data-name="Laag 23"><rect class="cls-12" x="595.36" y="442.87" width="356.56" height="86.23"/><path class="cls-1" d="M595.28,324.87V411.1H509.05A86.22,86.22,0,0,1,595.28,324.87Z" transform="translate(356.64 118)"/></g><g id="Laag_24" data-name="Laag 24"><rect class="cls-5" x="402.47" y="701.58" width="330.62" height="160.96"/><g id="Laag_25" data-name="Laag 25"><path class="cls-8" d="M291.62,664.05a80.48,80.48,0,0,1-80.48,80.48v-161A80.48,80.48,0,0,1,291.62,664.05Z" transform="translate(356.64 118)"/></g><g id="Laag_26" data-name="Laag 26"><path class="cls-1" d="M211.14,583.57v161a80.48,80.48,0,0,1,0-161Z" transform="translate(356.64 118)"/></g></g></svg>